Coordinates
version=1
nRows=8
nColumns=40
inDegrees=yes

Units are S.I. units (second, meters, Newtons, ...)
Angles are in degrees.

endheader
time	pelvis_tilt	pelvis_list	pelvis_rotation	pelvis_tx	pelvis_ty	pelvis_tz	hip_flexion_r	hip_adduction_r	hip_rotation_r	knee_angle_r	knee_angle_r_beta	ankle_angle_r	subtalar_angle_r	mtp_angle_r	hip_flexion_l	hip_adduction_l	hip_rotation_l	knee_angle_l	knee_angle_l_beta	ankle_angle_l	subtalar_angle_l	mtp_angle_l	lumbar_extension	lumbar_bending	lumbar_rotation	arm_flex_r	arm_add_r	arm_rot_r	elbow_flex_r	pro_sup_r	wrist_flex_r	wrist_dev_r	arm_flex_l	arm_add_l	arm_rot_l	elbow_flex_l	pro_sup_l	wrist_flex_l	wrist_dev_l
     31.28750000	     -2.97797639	     -4.21289985	      6.08352871	      1.13529969	      0.92534058	      0.44999235	      3.49554549	     -2.61870436	    -14.16447192	     27.80557712	     27.80557712	     15.87052571	     -5.20246560	     -6.15167140	     23.96072271	     -6.28427256	     -2.67531114	     25.75586518	     25.75586518	      7.94789989	    -13.31248496	      1.82617861	     -8.63316406	      3.87389312	      3.38805809	     28.65291497	    -18.71969167	     -1.93713296	     89.68336663	     44.37647033	      0.00000000	      0.00000000	     -1.90144751	     -9.05774062	      0.59200688	     30.46796267	     44.54417002	      0.00000000	      0.00000000
     31.30085714	     -2.97529196	     -4.15980820	      5.96091902	      1.13522227	      0.92585080	      0.44698863	      4.83574360	     -3.19605634	    -13.36139521	     30.65540506	     30.65540506	     13.43837148	     -7.68079571	    -10.79220382	     23.45679747	     -6.09667569	     -2.81472984	     25.64515492	     25.64515492	      8.19388199	    -13.37850812	      1.40126715	     -8.52364768	      3.81652005	      3.01216761	     27.90348895	    -18.23713113	     -1.55082518	     86.65892686	     44.52437295	      0.00000000	      0.00000000	     -0.74731251	     -9.30965736	      1.05207556	     30.23847907	     44.60539995	      0.00000000	      0.00000000
     31.31421429	     -2.88642734	     -4.08352389	      5.80128146	      1.13503989	      0.92631964	      0.44403598	      6.38091850	     -3.89029903	    -12.66309271	     34.12171725	     34.12171725	     11.94613171	     -9.30015997	    -12.36209593	     22.91040281	     -5.90342365	     -2.97734861	     25.64264389	     25.64264389	      8.50848242	    -13.49297405	      1.22075215	     -8.61482317	      3.74104093	      3.15190307	     26.44977502	    -18.39165070	     -1.36742548	     85.08690478	     44.58756352	      0.00000000	      0.00000000	      0.43263964	     -9.51287293	      1.04763583	     31.07324117	     44.66498202	      0.00000000	      0.00000000
     31.32757143	     -2.65051272	     -3.91505792	      5.65430691	      1.13490915	      0.92690584	      0.44114286	      7.88940499	     -4.75326256	    -12.14066020	     37.82130528	     37.82130528	     10.58009150	    -10.26286169	    -13.03318961	     22.16128681	     -5.64284057	     -3.21284800	     25.59759066	     25.59759066	      8.90174334	    -13.44448413	      1.04216095	     -8.91667989	      3.60659266	      2.98047425	     25.04150511	    -18.14553499	     -1.08523737	     83.99644789	     44.61269207	      0.00000000	      0.00000000	      1.65626822	     -9.76705351	      1.01691805	     31.62954781	     44.69628602	      0.00000000	      0.00000000
     31.34092857	     -2.65831588	     -3.87885694	      5.44815855	      1.13453040	      0.92709641	      0.43853757	      9.76427346	     -5.31852373	    -11.22681904	     41.35152162	     41.35152162	      7.76646991	    -12.66448966	    -16.01742544	     21.72294506	     -5.48356518	     -3.31610562	     25.54995949	     25.54995949	      9.10071840	    -13.71237454	      0.87528987	     -8.81664815	      3.56331984	      2.91254871	     23.96797209	    -17.77256208	     -1.27428691	     80.67434450	     44.75260283	      0.00000000	      0.00000000	      2.67360682	    -10.10263241	      1.30741341	     32.61127331	     44.73071100	      0.00000000	      0.00000000
     31.35428571	     -2.40792375	     -3.72477669	      5.29095351	      1.13421068	      0.92745390	      0.43593700	     11.47551890	     -6.12887230	    -10.63338921	     45.17815096	     45.17815096	      5.88938757	    -13.48113412	    -16.32393105	     21.03889112	     -5.25436739	     -3.52200179	     25.60463152	     25.60463152	      9.44595142	    -13.70621111	      0.70710549	     -9.13098427	      3.44853680	      2.70828315	     22.40748329	    -17.50458480	     -0.94190767	     79.56540754	     44.77491480	      0.00000000	      0.00000000	      3.95120809	    -10.42452128	      1.26561589	     33.24753047	     44.76332185	      0.00000000	      0.00000000
     31.36764286	     -2.37199350	     -3.72641417	      5.07600849	      1.13369507	      0.92757338	      0.43362879	     13.48948928	     -6.59460367	     -9.73311247	     48.81694836	     48.81694836	      3.40693728	    -14.98302498	    -16.70406861	     20.63217967	     -5.16981059	     -3.65637094	     25.66301152	     25.66301152	      9.70501641	    -13.91362435	      0.58689087	     -9.15592777	      3.47387050	      2.87532122	     20.94258259	    -17.42028914	     -1.06738444	     76.65165833	     44.88209976	      0.00000000	      0.00000000	      5.14467630	    -10.69585217	      1.46124424	     34.35949358	     44.78791877	      0.00000000	      0.00000000
     31.38100000	     -2.21724369	     -3.57603147	      4.86356007	      1.13326690	      0.92771121	      0.43134250	     15.38994858	     -7.26642835	     -8.96373171	     52.41811106	     52.41811106	      1.21193505	    -15.68493169	    -16.43403801	     20.04130063	     -4.95779093	     -3.92349520	     25.68239644	     25.68239644	     10.06435543	    -13.91238532	      0.43142772	     -9.32565426	      3.37465026	      2.71341183	     19.36523262	    -17.11880353	     -0.89967379	     75.03718198	     44.92706048	      0.00000000	      0.00000000	      6.37334589	    -11.04580689	      1.48020242	     35.10804689	     44.81507187	      0.00000000	      0.00000000
